<svg xmlns="http://www.w3.org/2000/svg" width="146" height="58" viewBox="0 0 146 58">
    <path fill="#FFF" fill-rule="evenodd" d="M135.719 24.61h-3.523l-.291 1.294h3.814c3.49 0 4.667.95 4.667 3.764v1.363c-.865-.886-2.395-1.336-4.557-1.336-3.45 0-5.127 1.496-5.127 4.572v.224c0 2.885 1.652 4.347 4.908 4.347h.876c3.45 0 5.2-1.462 5.2-4.347v-4.823c0-3.592-1.73-5.057-5.967-5.057zm4.667 10.068c0 2.064-1.103 2.868-3.936 2.868h-.548c-2.733 0-3.9-.914-3.9-3.055v-.224c0-2.325 1.112-3.317 3.717-3.317h.22c3.117 0 4.447.959 4.447 3.205v.523zm-95.122-7.532l.693-3.452h-5.965V18.98l-4.186.647V33.71c0 4.87 1.867 6.318 6.958 6.318h2.229l.693-3.421h-2.621c-2.32 0-3.073-.585-3.073-3.174v-6.287h5.272zm-28.768-9.8v15.132c0 5.609 2.53 7.95 8.043 7.95 5.724 0 8.254-2.28 8.254-7.92V31.06c0-5.3-2.35-7.89-7.47-7.89-1.627 0-3.404.339-4.61 1.294v-7.797l-4.217.678zm8.194 9.214c2.892 0 3.916 1.171 3.916 4.654v1.294c0 3.39-1.024 4.562-3.976 4.562s-3.977-1.172-3.977-4.592V30.72c0-3.113 1.025-4.16 4.037-4.16zm30.696-3.39c-5.513 0-8.043 2.373-8.043 7.797v.832c0 5.147 2.199 7.643 7.38 7.643 1.657 0 3.314-.307 4.488-1.263v.617c0 2.897-1.235 3.851-4.127 3.851h-1.731c-.99.018-1.44.198-2.036 1.198h-.003c-4.967 8.041-13.59 12.954-22.988 12.954-14.994 0-27.193-12.48-27.193-27.82S13.332 1.16 28.326 1.16c10.532 0 20.113 6.24 24.596 15.951h1.25C49.601 6.712 39.474 0 28.325 0 12.707 0 0 13 0 28.98c0 15.979 12.707 28.979 28.326 28.979 9.185 0 17.662-4.506 22.947-11.983h4.052c5.332 0 8.073-2.065 8.073-7.335v-7.95c0-5.24-2.62-7.52-8.012-7.52zm3.856 9.153c0 2.897-.995 3.79-3.856 3.79-3.224 0-3.856-1.14-3.856-4.498v-.524c0-3.33.572-4.53 3.856-4.53 3.223 0 3.856 1.17 3.856 4.56v1.202zm85.127 6.515h1.3V19.265h-1.3v19.573zm-29.281-12.934l.291-1.293h-5.813v-3.695l-1.336.244v12.658c0 3.606 1.32 4.946 4.87 4.946h1.92l.243-1.292H113.1c-2.676 0-3.534-.87-3.534-3.58v-7.988h5.522zm12.034 7.316c0 3.332-1.019 4.4-4.192 4.4-3.08 0-4.12-1.11-4.12-4.4v-8.61h-1.335v8.61c0 4.097 1.53 5.693 5.455 5.693 3.9 0 5.491-1.649 5.491-5.693v-8.61h-1.3v8.61zm-29.395-.934v-1.197c0-3.829 1.278-5.185 4.886-5.185h3.048l.29-1.293h-3.338c-4.303 0-6.223 1.998-6.223 6.478v1.197c0 4.48 1.92 6.478 6.223 6.478h3.084l.291-1.292h-3.375c-3.517 0-4.886-1.454-4.886-5.186zm-9.621-7.675h-3.523l-.291 1.293h3.814c3.462 0 4.63.95 4.63 3.764v1.363c-.865-.886-2.395-1.336-4.557-1.336-3.45 0-5.126 1.496-5.126 4.572v.224c0 2.885 1.663 4.347 4.943 4.347h.877c3.426 0 5.163-1.462 5.163-4.347v-4.823c0-3.592-1.718-5.057-5.93-5.057zm4.63 10.067c0 2.09-1.057 2.868-3.9 2.868h-.547c-2.76 0-3.937-.914-3.937-3.055v-.224c0-2.325 1.112-3.317 3.717-3.317h.22c3.117 0 4.447.959 4.447 3.205v.523zM75.024 24.387c-4.12 0-6.04 2.082-6.04 6.553V43.1h1.3v-6.244c.94 1.25 2.694 1.982 4.813 1.982 4.101 0 5.93-2.02 5.93-6.552v-1.384c0-4.506-1.851-6.515-6.003-6.515zm4.667 7.899c0 3.835-1.245 5.26-4.594 5.26-3.17 0-4.777-1.581-4.777-4.7V30.94c0-3.737 1.363-5.261 4.704-5.261 3.358 0 4.667 1.464 4.667 5.223v1.384z"/>
</svg>
